<?xml version="1.0" encoding="utf-8"?>
<!-- Generator: Adobe Illustrator 23.0.6, SVG Export Plug-In . SVG Version: 6.00 Build 0)  -->
<svg version="1.1" id="Layer_1" xmlns="http://www.w3.org/2000/svg" xmlns:xlink="http://www.w3.org/1999/xlink" x="0px" y="0px"
	 viewBox="0 0 512 512" style="enable-background:new 0 0 512 512;" xml:space="preserve">
<path fill="white" d="M213.9,217.8l9.4,70.7v11.4c0,11.3,9.2,20.5,20.5,20.5h77.9c11.3,0,20.5-9.2,20.5-20.5v-11.4l9.4-70.7
	c17.8-6.5,26.9-26.2,20.4-43.9s-26.2-26.9-43.9-20.4c-2.5,0.9-4.8,2.1-7,3.5c-15.9-21.2-46-25.4-67.2-9.5c-3.6,2.7-6.8,5.9-9.5,9.5
	c-15.8-10.3-37.1-5.9-47.4,10c-10.3,15.8-5.9,37.1,10,47.4C209.2,215.7,211.5,216.9,213.9,217.8L213.9,217.8z M328.2,299.8
	c0,3.6-2.9,6.5-6.5,6.5h-77.9c-3.6,0-6.5-2.9-6.5-6.5V295h90.9V299.8z M225.7,165.3c5.8,0,11.3,2.5,15.1,6.8c2.6,2.9,7,3.1,9.9,0.6
	c0.7-0.6,1.2-1.3,1.6-2.1c8.3-16.8,28.7-23.6,45.5-15.3c6.6,3.3,12,8.7,15.3,15.3c1.7,3.5,5.9,4.9,9.4,3.1c0.8-0.4,1.5-0.9,2.1-1.6
	c7.4-8.4,20.2-9.1,28.6-1.7s9.1,20.2,1.7,28.6c-2.9,3.3-6.8,5.5-11.1,6.4c-2.9,0.6-5.1,3-5.5,5.9l-9.2,69.6h-16.7l7-33.5
	c0.8-3.8-1.6-7.5-5.4-8.3c-3.8-0.8-7.5,1.6-8.3,5.4l-7.6,36.4h-8.3v-41.7c0-3.9-3.1-7-7-7s-7,3.1-7,7V281h-8.3l-7.6-36.4
	c-0.8-3.8-4.5-6.2-8.3-5.4s-6.2,4.5-5.4,8.3l0,0l7,33.5h-16.7l-9.2-69.6c-0.4-3-2.6-5.3-5.5-5.9c-11-2.3-18-13-15.8-23.9
	C207.8,172.1,216.1,165.4,225.7,165.3L225.7,165.3z"/>
<path fill="white" d="M421,0H108.8C95.1,0,84,11.1,84,24.8v408.5c0,13.7,11.1,24.8,24.8,24.8h67.7V505c0,3.9,3.1,7,7,7c1.1,0,2.3-0.3,3.3-0.8
	l34.7-18.3l34.7,18.3c3.4,1.8,7.7,0.5,9.5-2.9c0.5-1,0.8-2.1,0.8-3.3v-46.8H421c3.9,0,7-3.1,7-7V7C428,3.1,424.9,0,421,0z M98,433.3
	V24.8c0-6,4.9-10.8,10.8-10.8h28.7v430.2h-28.7C102.9,444.2,98,439.3,98,433.3z M252.5,493.4l-27.7-14.6c-2-1.1-4.5-1.1-6.5,0
	l-27.7,14.6v-35.2h62L252.5,493.4z M414,444.2H151.5V14H414V444.2z"/>
<path fill="white" d="M189.7,401.1h186c3.9,0,7-3.1,7-7l0,0v-38.4c0-3.9-3.1-7-7-7c0,0,0,0,0,0h-186c-3.9,0-7,3.1-7,7v38.4
	C182.7,397.9,185.9,401.1,189.7,401.1L189.7,401.1z M196.7,362.7h172v24.4h-172L196.7,362.7z"/>
</svg>
