<?xml version="1.0" encoding="utf-8"?>
<!-- Generator: Adobe Illustrator 24.0.1, SVG Export Plug-In . SVG Version: 6.00 Build 0)  -->
<svg version="1.1" id="Layer_2_1_" xmlns="http://www.w3.org/2000/svg" xmlns:xlink="http://www.w3.org/1999/xlink" x="0px" y="0px"
	 viewBox="0 0 512 512" style="enable-background:new 0 0 512 512;" xml:space="preserve">
<path fill="white" d="M430.7,51.7H384V7c-0.1-3.9-3.3-7-7.2-7c-0.3,0-0.7,0-1,0.1L80.1,51.8c-3.3,0.6-5.7,3.5-5.8,6.9V505c0,3.9,3.1,7,7,7h349.3
	c3.9,0,7-3.1,7-7V58.7C437.7,54.8,434.5,51.7,430.7,51.7C430.7,51.7,430.7,51.7,430.7,51.7z M370,15.3v36.3H162.1L370,15.3z
	 M423.7,498H88.3V65.7h335.3V498z"/>
<path fill="white" d="M112.5,420v49c0,3.9,3.1,7,7,7h273c3.9,0,7-3.1,7-7v-49c0-3.9-3.1-7-7-7h-273C115.6,413,112.5,416.1,112.5,420z M126.5,427
	h259v35h-259V427z"/>
<g>
	<path fill="white" d="M176.3,184.8c-2.2-0.6-3.7-2.5-3.7-4.7V99.9c0-2.7-2.2-4.9-4.9-4.9H138c-2.7,0-4.9,2.2-4.9,4.9v80.2c0,2.2-1.5,4.2-3.7,4.7
		c-15.2,3.9-25.9,17.7-25.9,33.4V386c0,2.7,2.2,4.9,4.9,4.9h88.8c2.7,0,4.9-2.2,4.9-4.9V218.3C202.2,202.5,191.5,188.8,176.3,184.8z
		 M143,104.8h19.7v9.9H143V104.8z M192.3,326.8h-78.9v-69.1h78.9V326.8z M113.4,381.1v-44.4h78.9v44.4H113.4z M192.3,247.9h-78.9
		v-29.6c0-11.2,7.6-21.1,18.5-23.9c6.5-1.7,11.1-7.5,11.1-14.3v-55.6h19.7v55.6c0,6.7,4.6,12.6,11.1,14.3
		c10.9,2.8,18.5,12.6,18.5,23.9V247.9z"/>
	<path fill="white" d="M282.5,205.3c-7.3-11.8-11.2-25.3-11.2-39.2V99.9c0-2.7-2.2-4.9-4.9-4.9h-29.6c-2.7,0-4.9,2.2-4.9,4.9V166
		c0,13.9-3.9,27.4-11.2,39.2l-0.7,1.1c-8.3,13.3-12.8,28.7-12.8,44.5V386c0,2.7,2.2,4.9,4.9,4.9H291c2.7,0,4.9-2.2,4.9-4.9V250.8
		c0-15.7-4.4-31.1-12.8-44.5L282.5,205.3z M241.6,104.8h19.7v9.9h-19.7V104.8z M286,381.1H217V250.8c0-13.9,3.9-27.4,11.2-39.2
		l0.7-1.1c8.3-13.3,12.8-28.7,12.8-44.5v-41.4h19.7V166c0,15.7,4.4,31.1,12.8,44.5l0.7,1c7.3,11.8,11.2,25.3,11.2,39.2L286,381.1
		L286,381.1z"/>
	<path fill="white" d="M251.5,267.6c-13.6,0-24.7,11-24.7,24.7s11,24.7,24.7,24.7c13.6,0,24.7-11,24.7-24.7S265.1,267.6,251.5,267.6z
		 M251.5,307.1c-8.2,0-14.8-6.6-14.8-14.8s6.6-14.8,14.8-14.8c8.2,0,14.8,6.6,14.8,14.8S259.7,307.1,251.5,307.1z"/>
	<path fill="white" d="M370.9,142.3L370.9,142.3c-0.7-0.4-1-1.2-1-1.9V99.9c0-2.7-2.2-4.9-4.9-4.9h-29.6c-2.7,0-4.9,2.2-4.9,4.9v40.5
		c0,0.7-0.4,1.5-1,1.9l-0.1,0.1c-17.9,11.9-28.6,31.9-28.6,53.3V386c0,2.7,2.2,4.9,4.9,4.9h88.8c2.7,0,4.9-2.2,4.9-4.9V195.7
		C399.5,174.2,388.8,154.2,370.9,142.3z M340.3,104.8H360v9.9h-19.7V104.8z M389.6,381.1h-78.9V195.7c0-18.1,9-35,24.1-45.1l0.1-0.1
		c3.4-2.3,5.4-6,5.4-10.1v-15.9H360v15.8c0,4.1,2,7.9,5.4,10.1l0.1,0.1c15,10.1,24.1,27,24.1,45.1V381.1z"/>
	<path fill="white" d="M325.5,223.2c-2.7,0-4.9,2.2-4.9,4.9v128.3c0,2.7,2.2,4.9,4.9,4.9h49.3c2.7,0,4.9-2.2,4.9-4.9V228.1c0-2.7-2.2-4.9-4.9-4.9
		H325.5z M369.9,351.5h-39.5V233.1h39.5V351.5z"/>
</g>
</svg>
